<svg width="408" height="372" viewBox="0 0 408 372" fill="none" xmlns="http://www.w3.org/2000/svg">
<path opacity="0.05" d="M78.6182 371.146L152.212 351.708L218.94 318.731L240.506 307.416L247.469 303.935L310.715 335.171L387.694 290.976L174.068 235.272L78.6182 371.146Z" fill="black"/>
<path d="M240.507 307.415L134.806 254.516V49.6904L240.507 102.493V307.415Z" fill="#53677A"/>
<path d="M240.507 102.493L134.806 49.6906L233.35 0.853516L338.954 53.7523L240.507 102.493Z" fill="#839DC2"/>
<path d="M338.954 258.579L240.506 307.416V102.493L338.954 53.7529V258.579Z" fill="#778FB0"/>
<path d="M332.862 254.903L246.696 297.938V240.3L332.862 197.169V254.903Z" fill="#737B7D"/>
<path d="M374.076 276.354L300.529 318.509L262.576 291.448L294.576 273.854L331.276 255.065L374.076 276.354Z" fill="#B5C2C4"/>
<path d="M402.489 289.427L332.86 254.612L331.409 208.87V207.226L402.489 242.814V289.427Z" fill="#E4F4F7"/>
<path d="M401.038 290.297L331.409 255.482V208.869L401.038 243.684V290.297Z" fill="#B5C2C4"/>
<path d="M317.678 332.076L248.049 297.261L246.695 251.616V249.972L317.678 285.463V332.076Z" fill="#E4F4F7"/>
<path d="M316.324 333.043L246.695 298.228V251.615L316.324 286.43V333.043Z" fill="#B5C2C4"/>
<path d="M403.458 287.976L317.679 335.169L313.714 332.752V275.114L403.458 230.242V287.976Z" fill="#415261"/>
<path d="M407.423 290.298L317.679 335.17V294.553L315.745 287.687L317.679 277.436L407.423 232.66L404.619 243.395L407.423 249.777V290.298Z" fill="#394754"/>
<path d="M407.423 249.777L317.679 294.553L315.745 287.686L404.619 243.395L407.423 249.777Z" fill="#7F98BC"/>
<path d="M407.422 232.66V240.59L317.678 284.785V277.436L407.422 232.66Z" fill="#566B7F"/>
<path d="M317.679 277.436V284.786L313.714 282.755V275.115L317.679 277.436Z" fill="#415261"/>
<path d="M313.714 275.114L317.679 277.435L407.423 232.66L403.458 230.242L313.714 275.114Z" fill="#7F98BC"/>
<path d="M317.678 294.552L407.422 249.776V290.297L317.678 335.169V294.552Z" fill="#566B7F"/>
<path d="M322.321 309.93V297.745L340.599 288.558V300.743L322.321 309.93Z" fill="#A3C0C9"/>
<path d="M339.633 300.26L323.192 308.48V298.229L339.633 290.009V300.26Z" fill="white"/>
<path d="M332.862 122.897L246.696 165.932V108.294L332.862 65.1631V122.897Z" fill="#35434F"/>
<path d="M332.862 122.899L245.246 166.804V126.187L243.215 119.321L245.246 109.07L332.862 65.165L330.058 75.8995L332.862 82.2822V122.899Z" fill="#566B7F"/>
<path d="M332.862 82.2811L245.246 126.186L243.215 119.32L330.058 75.8984L332.862 82.2811Z" fill="#7F98BC"/>
<path d="M332.861 65.165V73.095L245.244 116.42V109.07L332.861 65.165Z" fill="#566B7F"/>
<path d="M246.696 103.461V166.611L243.408 168.448L241.764 105.008L246.696 103.461Z" fill="#778FB0"/>
<path d="M246.695 117.582L330.057 75.9009L330.444 74.2568L246.695 115.647V117.582Z" fill="#415261"/>
<path d="M249.306 140.113V127.928L267.68 118.741V130.926L249.306 140.113Z" fill="#A3C0C9"/>
<path d="M266.713 130.443L250.272 138.663V128.412L266.713 120.192V130.443Z" fill="white"/>
<path d="M246.695 108.681V107.811L332.861 64.7764V65.55L246.695 108.681Z" fill="#415261"/>
<path d="M332.862 189.239L246.696 232.37V174.636L332.862 131.602V189.239Z" fill="#35434F"/>
<path d="M332.862 189.238L245.246 233.24V192.623L243.215 185.757L245.246 175.506L332.862 131.601L330.058 142.335L332.862 148.718V189.238Z" fill="#566B7F"/>
<path d="M332.862 148.717L245.246 192.622L243.215 185.755L330.058 142.334L332.862 148.717Z" fill="#7F98BC"/>
<path d="M332.861 131.601V139.531L245.244 182.759V175.506L332.861 131.601Z" fill="#566B7F"/>
<path d="M246.696 169.801V233.047L243.408 234.885L241.764 171.445L246.696 169.801Z" fill="#778FB0"/>
<path d="M246.695 184.017L330.057 142.336L330.444 140.692L246.695 182.083V184.017Z" fill="#415261"/>
<path d="M249.306 206.548V194.363L267.68 185.176V197.361L249.306 206.548Z" fill="#A3C0C9"/>
<path d="M266.713 196.878L250.272 205.098V194.847L266.713 186.627V196.878Z" fill="white"/>
<path d="M246.695 175.119V174.249L332.861 131.117V131.988L246.695 175.119Z" fill="#415261"/>
<path d="M218.94 318.73L152.212 351.707V277.629L218.94 244.652V318.73Z" fill="#7086A5"/>
<path d="M152.211 351.707L78.1338 314.668V240.591L152.211 277.63V351.707Z" fill="#53677A"/>
<path d="M218.939 244.653L152.211 277.63L78.1338 240.591L144.862 207.614L218.939 244.653Z" fill="#7F98BC"/>
<path d="M81.0361 240.592L144.863 209.065L216.039 244.654L152.213 276.18L81.0361 240.592Z" fill="#53677A"/>
<path d="M144.863 209.064V272.504L152.213 276.179L216.04 244.653L144.863 209.064Z" fill="#7086A5"/>
<path d="M121.846 281.305L108.307 274.536C105.696 273.182 103.569 269.99 103.569 267.379C103.569 266.799 103.665 266.316 103.859 265.929C102.892 266.316 102.312 267.283 102.312 268.637C102.312 271.248 104.439 274.439 107.05 275.793L120.589 282.562C122.62 283.626 124.361 283.143 125.038 281.692C124.167 282.079 123.104 281.982 121.846 281.305Z" fill="#3C4A57"/>
<mask id="mask0_333_31927" style="mask-type:luminance" maskUnits="userSpaceOnUse" x="103" y="265" width="23" height="17">
<path d="M125.326 280.243C125.326 277.631 123.199 274.44 120.588 273.086L107.049 266.317C105.792 265.736 104.631 265.64 103.858 265.93C103.664 266.317 103.567 266.8 103.567 267.381C103.567 269.992 105.695 273.183 108.306 274.537L121.845 281.306C123.102 281.887 124.263 281.983 125.036 281.693C125.23 281.306 125.326 280.823 125.326 280.243Z" fill="white"/>
</mask>
<g mask="url(#mask0_333_31927)">
<path d="M108.21 253.743V276.856L121.265 281.401V259.739L108.21 253.743Z" fill="#74ADE3"/>
</g>
<mask id="mask1_333_31927" style="mask-type:luminance" maskUnits="userSpaceOnUse" x="103" y="265" width="23" height="17">
<path d="M125.326 280.243C125.326 277.631 123.199 274.44 120.588 273.086L107.049 266.317C105.792 265.736 104.631 265.64 103.858 265.93C103.664 266.317 103.567 266.8 103.567 267.381C103.567 269.992 105.695 273.183 108.306 274.537L121.845 281.306C123.102 281.887 124.263 281.983 125.036 281.693C125.23 281.306 125.326 280.823 125.326 280.243Z" fill="white"/>
</mask>
<g mask="url(#mask1_333_31927)">
<path d="M124.649 260.708V283.531L128.421 277.052L124.649 260.708Z" fill="#74ADE3"/>
</g>
<mask id="mask2_333_31927" style="mask-type:luminance" maskUnits="userSpaceOnUse" x="103" y="265" width="23" height="17">
<path d="M125.326 280.243C125.326 277.631 123.199 274.44 120.588 273.086L107.049 266.317C105.792 265.736 104.631 265.64 103.858 265.93C103.664 266.317 103.567 266.8 103.567 267.381C103.567 269.992 105.695 273.183 108.306 274.537L121.845 281.306C123.102 281.887 124.263 281.983 125.036 281.693C125.23 281.306 125.326 280.823 125.326 280.243Z" fill="white"/>
</mask>
<g mask="url(#mask2_333_31927)">
<path d="M121.266 281.402L124.65 282.949V263.898L121.266 262.157V281.402Z" fill="#5B8FBD"/>
</g>
<mask id="mask3_333_31927" style="mask-type:luminance" maskUnits="userSpaceOnUse" x="103" y="265" width="23" height="17">
<path d="M125.326 280.243C125.326 277.631 123.199 274.44 120.588 273.086L107.049 266.317C105.792 265.736 104.631 265.64 103.858 265.93C103.664 266.317 103.567 266.8 103.567 267.381C103.567 269.992 105.695 273.183 108.306 274.537L121.845 281.306C123.102 281.887 124.263 281.983 125.036 281.693C125.23 281.306 125.326 280.823 125.326 280.243Z" fill="white"/>
</mask>
<g mask="url(#mask3_333_31927)">
<path d="M104.923 252.487V272.119L101.055 265.736L104.923 252.487Z" fill="#74ADE3"/>
</g>
<mask id="mask4_333_31927" style="mask-type:luminance" maskUnits="userSpaceOnUse" x="103" y="265" width="23" height="17">
<path d="M125.326 280.243C125.326 277.631 123.199 274.44 120.588 273.086L107.049 266.317C105.792 265.736 104.631 265.64 103.858 265.93C103.664 266.317 103.567 266.8 103.567 267.381C103.567 269.992 105.695 273.183 108.306 274.537L121.845 281.306C123.102 281.887 124.263 281.983 125.036 281.693C125.23 281.306 125.326 280.823 125.326 280.243Z" fill="white"/>
</mask>
<g mask="url(#mask4_333_31927)">
<path d="M108.21 261.287L104.922 260.127V272.119L108.21 276.857V261.287Z" fill="#5B8FBD"/>
</g>
<mask id="mask5_333_31927" style="mask-type:luminance" maskUnits="userSpaceOnUse" x="103" y="265" width="23" height="17">
<path d="M125.326 280.243C125.326 277.631 123.199 274.44 120.588 273.086L107.049 266.317C105.792 265.736 104.631 265.64 103.858 265.93C103.664 266.317 103.567 266.8 103.567 267.381C103.567 269.992 105.695 273.183 108.306 274.537L121.845 281.306C123.102 281.887 124.263 281.983 125.036 281.693C125.23 281.306 125.326 280.823 125.326 280.243Z" fill="white"/>
</mask>
<g mask="url(#mask5_333_31927)">
<path d="M119.524 284.4L109.467 279.371V257.322L119.524 262.254V284.4Z" fill="white"/>
</g>
<path d="M172.136 300.355V285.559L202.889 269.796V284.592L172.136 300.355Z" fill="#A3C0C9"/>
<path d="M201.728 284.011L173.296 298.711V286.139L201.728 271.536V284.011Z" fill="white"/>
<path d="M151.729 320.374L78.6179 371.145L76.1035 361.088L150.665 309.543L151.729 320.374Z" fill="#7086A5"/>
<path d="M78.6188 371.145L3.09056 333.43L0.576172 323.372L76.1044 361.088L78.6188 371.145Z" fill="#53677A"/>
<path d="M150.666 309.543L76.1044 361.088L0.576172 323.275L76.1044 272.311L150.666 309.543Z" fill="#7F98BC"/>
</svg>
