<svg width="20" height="25" viewBox="0 0 20 25" fill="none" xmlns="http://www.w3.org/2000/svg">
<path d="M14.9967 2.67969H17.7625C18.0589 2.67969 18.3431 2.79858 18.5527 3.01021C18.7623 3.22184 18.88 3.50888 18.88 3.80817V22.4281C18.88 22.7274 18.7623 23.0144 18.5527 23.226C18.3431 23.4377 18.0589 23.5566 17.7625 23.5566H2.1175C1.82112 23.5566 1.53688 23.4377 1.32731 23.226C1.11774 23.0144 1 22.7274 1 22.4281V3.80817C1 3.50888 1.11774 3.22184 1.32731 3.01021C1.53688 2.79858 1.82112 2.67969 2.1175 2.67969H6.02875V4.37241H13.8512V2.67969H14.9967Z" stroke="#A9DFD8" stroke-width="1.5" stroke-linejoin="round"/>
<path d="M11.6166 9.44993L7.14655 13.9644H12.7363L8.26405 18.4783M6.02905 0.986328H13.8516V4.37177H6.02905V0.986328Z" stroke="#A9DFD8" stroke-width="1.5" stroke-linecap="round" stroke-linejoin="round"/>
</svg>
