<svg width="48" height="48" viewBox="0 0 48 48" fill="none" xmlns="http://www.w3.org/2000/svg">
<path d="M16 28H32V26.9C32 25.4333 31.2667 24.25 29.8 23.35C28.3333 22.45 26.4 22 24 22C21.6 22 19.6667 22.45 18.2 23.35C16.7333 24.25 16 25.4333 16 26.9V28ZM24 20C25.1 20 26.042 19.608 26.826 18.824C27.61 18.04 28.0013 17.0987 28 16C28 14.9 27.608 13.958 26.824 13.174C26.04 12.39 25.0987 11.9987 24 12C22.9 12 21.958 12.392 21.174 13.176C20.39 13.96 19.9987 14.9013 20 16C20 17.1 20.392 18.042 21.176 18.826C21.96 19.61 22.9013 20.0013 24 20ZM4 44V8C4 6.9 4.392 5.958 5.176 5.174C5.96 4.39 6.90133 3.99867 8 4H40C41.1 4 42.042 4.392 42.826 5.176C43.61 5.96 44.0013 6.90134 44 8V32C44 33.1 43.608 34.042 42.824 34.826C42.04 35.61 41.0987 36.0013 40 36H12L4 44ZM10.3 32H40V8H8V34.25L10.3 32Z" fill="#405294"/>
</svg>
