<svg width="56" height="56" viewBox="0 0 56 56" xmlns="http://www.w3.org/2000/svg" fill="none">
 <defs>
  <linearGradient y2="1" x2="0.5" y1="0" x1="0.5" id="paint0_linear_1_27758">
   <stop stop-color="#13FF8E"/>
   <stop stop-color="#00A3FF" offset="1"/>
  </linearGradient>
  <linearGradient y2="1" x2="0.5" y1="0" x1="0.5" id="paint1_linear_1_27758">
   <stop stop-color="#13FF8E"/>
   <stop stop-color="#00A3FF" offset="1"/>
  </linearGradient>
 </defs>
 <g>
  <path stroke="null" id="svg_1" fill="url(#paint0_linear_1_27758)" d="m55.41667,27.99921c0,15.05062 -11.78525,27.08931 -27.41667,27.25152c-15.63142,0.16221 -27.41667,-12.20089 -27.41667,-27.25152c0,-15.05062 12.27483,-27.25152 27.41667,-27.25152c15.14183,0 27.41667,12.20089 27.41667,27.25152zm-49.35,0c0,12.0405 9.81987,21.80121 21.93333,21.80121c12.11347,0 21.93333,-9.76072 21.93333,-21.80121c0,-12.0405 -9.81987,-21.80121 -21.93333,-21.80121c-12.11347,0 -21.93333,9.76072 -21.93333,21.80121z"/>
  <path stroke="null" id="svg_2" fill="#191919" d="m55.66667,28c0,15.32593 -12.38676,27.75 -27.66667,27.75c-15.2799,0 -27.66667,-12.42407 -27.66667,-27.75c0,-15.32593 12.38676,-27.75 27.66667,-27.75c15.2799,0 27.66667,12.42407 27.66667,27.75zm-52.56667,0c0,13.79334 11.14809,24.975 24.9,24.975c13.75191,0 24.9,-11.18166 24.9,-24.975c0,-13.79334 -11.14809,-24.975 -24.9,-24.975c-13.75191,0 -24.9,11.18166 -24.9,24.975z"/>
  <path id="svg_3" fill="url(#paint1_linear_1_27758)" d="m28.0001,11.6667l-2.1932,3.8381l-1.3769,2.4095l-2.1932,3.8381l-1.3768,2.4095l-2.1933,3.8381l2.1933,3.8381l2.1932,-3.8381l1.3768,-2.4095l1.3769,2.4095l-1.3769,2.4095l-2.1932,3.8381l2.1932,3.8382l2.1932,-3.8382l1.2368,-2.1642l0.1401,-0.2453l1.3768,2.4095l-1.3768,2.4095l-2.1932,3.8381l2.1932,3.8382l2.1932,-3.8382l1.3768,-2.4094l2.1933,-3.8382l1.3768,-2.4095l2.1932,-3.8381l-2.1932,-3.8381l-2.1932,3.8381l-1.3769,2.4095l-1.3768,-2.4095l1.3768,-2.4095l2.1933,-3.8381l-2.1933,-3.8381l-2.1932,3.8381l-1.3768,2.4095l-1.3769,-2.4095l1.3769,-2.4095l2.1932,-3.8381l-2.1932,-3.8381z"/>
 </g>
</svg>