<svg width="56" height="56" viewBox="0 0 56 56" fill="none" xmlns="http://www.w3.org/2000/svg">
<path d="M56 28C56 43.464 43.464 56 28 56C12.536 56 0 43.464 0 28C0 12.536 12.536 0 28 0C43.464 0 56 12.536 56 28ZM5.6 28C5.6 40.3712 15.6288 50.4 28 50.4C40.3712 50.4 50.4 40.3712 50.4 28C50.4 15.6288 40.3712 5.6 28 5.6C15.6288 5.6 5.6 15.6288 5.6 28Z" fill="url(#paint0_linear_190_55)"/>
<path d="M56 28C56 43.464 43.464 56 28 56C12.536 56 0 43.464 0 28C0 12.536 12.536 0 28 0C43.464 0 56 12.536 56 28ZM2.8 28C2.8 41.9176 14.0824 53.2 28 53.2C41.9176 53.2 53.2 41.9176 53.2 28C53.2 14.0824 41.9176 2.8 28 2.8C14.0824 2.8 2.8 14.0824 2.8 28Z" fill="#303030"/>
<path d="M27.9998 11.6667L25.8066 15.5049L24.4298 17.9144L22.2366 21.7525L20.8597 24.162L18.6665 28.0001L20.8597 31.8382L23.0529 28.0001L24.4298 25.5906L25.8066 28.0001L24.4298 30.4096L22.2366 34.2477L24.4298 38.0858L26.623 34.2477L27.8597 32.0834L27.9998 31.8382L29.3767 34.2477L27.9998 36.6572L25.8066 40.4953L27.9998 44.3334L30.193 40.4953L31.5699 38.0858L33.7631 34.2477L35.14 31.8382L37.3332 28.0001L35.14 24.162L32.9468 28.0001L31.5699 30.4096L30.1931 28.0001L31.5699 25.5906L33.7631 21.7525L31.5699 17.9144L29.3767 21.7525L27.9998 24.162L26.623 21.7525L27.9998 19.343L30.1931 15.5049L27.9998 11.6667Z" fill="url(#paint1_linear_190_55)"/>
<defs>
<linearGradient id="paint0_linear_190_55" x1="28" y1="0" x2="28" y2="56" gradientUnits="userSpaceOnUse">
<stop stop-color="#13FF8E"/>
<stop offset="1" stop-color="#00A3FF"/>
</linearGradient>
<linearGradient id="paint1_linear_190_55" x1="27.9998" y1="11.6667" x2="27.9998" y2="44.3334" gradientUnits="userSpaceOnUse">
<stop stop-color="#13FF8E"/>
<stop offset="1" stop-color="#00A3FF"/>
</linearGradient>
</defs>
</svg>
