<svg width="23" height="24" viewBox="0 0 23 24" fill="none" xmlns="http://www.w3.org/2000/svg">
<path d="M10.8462 11.9862C13.8802 11.9862 16.3397 9.56104 16.3397 6.5695C16.3397 3.57796 13.8802 1.15283 10.8462 1.15283C7.81228 1.15283 5.35278 3.57796 5.35278 6.5695C5.35278 9.56104 7.81228 11.9862 10.8462 11.9862Z" stroke="#4F4F58" stroke-width="1.5"/>
<path d="M15.2412 16.3193H21.8333M16.3399 22.8193H3.44786C3.13625 22.8194 2.82819 22.7541 2.54413 22.6278C2.26006 22.5015 2.00649 22.3171 1.80024 22.0868C1.59398 21.8565 1.43977 21.5855 1.34783 21.292C1.25589 20.9984 1.22832 20.6889 1.26696 20.384L1.69545 16.9997C1.7951 16.2134 2.18262 15.4901 2.78516 14.9658C3.3877 14.4415 4.16374 14.1524 4.96735 14.1527H5.35299L16.3399 22.8193ZM18.5373 13.0693V19.5693V13.0693Z" stroke="#4F4F58" stroke-width="1.5" stroke-linecap="round" stroke-linejoin="round"/>
</svg>
